<?xml version="1.0" standalone="no"?>
<!DOCTYPE svg PUBLIC "-//W3C//DTD SVG 20010904//EN"
 "http://www.w3.org/TR/2001/REC-SVG-20010904/DTD/svg10.dtd">
<svg version="1.0" xmlns="http://www.w3.org/2000/svg"
 width="228.000000pt" height="284.000000pt" viewBox="0 0 228.000000 284.000000"
 preserveAspectRatio="xMidYMid meet">

<g transform="translate(0.000000,284.000000) scale(0.100000,-0.100000)"
fill="#000000" stroke="none">
<path d="M1235 2816 c-472 -78 -858 -364 -1076 -797 -54 -107 -113 -289 -135
-414 -24 -136 -24 -385 0 -520 73 -407 304 -764 641 -989 39 -26 94 -59 123
-73 51 -25 54 -25 150 -13 249 30 407 102 502 229 82 108 104 189 151 539 l32
242 153 0 154 0 0 48 c0 26 -3 64 -6 85 l-7 37 -133 0 -134 0 0 25 c0 47 31
177 55 230 32 74 94 137 163 168 74 33 202 50 309 42 l83 -7 0 85 c0 100 3 97
-108 97 -340 0 -563 -103 -660 -303 -32 -68 -65 -185 -77 -284 l-7 -53 -188 0
-188 0 -10 -47 c-6 -27 -14 -65 -17 -86 l-7 -37 194 0 194 0 -32 -247 c-18
-136 -38 -267 -44 -292 -16 -65 -67 -157 -107 -191 -72 -64 -196 -107 -315
-111 -53 -2 -61 1 -145 57 -232 155 -432 423 -516 690 -50 159 -62 237 -62
419 0 182 12 261 61 418 104 327 356 623 659 775 179 89 344 126 560 126 117
0 183 -5 245 -18 181 -39 365 -121 500 -222 l70 -53 0 102 0 102 -67 42 c-144
87 -304 151 -473 188 -102 22 -380 29 -485 11z"/>
<path d="M2100 2273 c-100 -40 -110 -207 -17 -263 100 -61 219 43 186 162 -16
61 -56 99 -109 104 -25 2 -52 1 -60 -3z"/>
<path d="M2070 730 l0 -731 98 3 97 3 0 725 0 725 -97 3 -98 3 0 -731z"/>
</g>
</svg>
