<?xml version="1.0" standalone="no"?>
<!DOCTYPE svg PUBLIC "-//W3C//DTD SVG 20010904//EN"
 "http://www.w3.org/TR/2001/REC-SVG-20010904/DTD/svg10.dtd">
<svg version="1.0" xmlns="http://www.w3.org/2000/svg"
 width="500.000000pt" height="500.000000pt" viewBox="0 0 500.000000 500.000000"
 preserveAspectRatio="xMidYMid meet">

<g transform="translate(0.000000,500.000000) scale(0.100000,-0.100000)"
fill="#000000" stroke="none">
<path d="M2733 3130 c-56 -74 -72 -90 -88 -85 -11 4 -63 9 -115 12 -157 9
-285 -37 -398 -142 -120 -111 -171 -228 -172 -391 0 -113 15 -177 63 -268 36
-68 125 -166 150 -166 28 0 20 19 -36 81 -96 106 -137 210 -137 349 0 136 50
256 143 348 112 110 245 160 399 149 44 -3 82 -8 85 -11 3 -3 -37 -62 -88
-131 -90 -120 -95 -125 -124 -119 -57 10 -102 -21 -167 -118 -19 -27 -28 -54
-28 -79 0 -74 81 -127 152 -100 34 13 115 114 129 162 9 30 9 43 -5 69 l-16
32 152 202 c83 110 162 214 175 229 13 16 23 37 23 48 0 40 -32 16 -97 -71z"/>
<path d="M2780 2953 c0 -10 17 -29 37 -43 42 -29 105 -105 135 -163 66 -131
71 -296 12 -428 l-26 -57 25 -168 c14 -93 24 -170 23 -172 -2 -1 -68 27 -148
62 l-144 65 -50 -15 c-59 -18 -202 -21 -261 -5 l-43 12 62 82 c60 80 63 82 99
79 20 -2 48 2 62 10 25 13 187 218 187 237 0 30 -25 13 -74 -49 -50 -64 -56
-69 -65 -51 -17 30 -14 38 29 95 22 29 40 58 40 64 0 29 -32 7 -72 -47 -37
-52 -46 -59 -68 -54 -14 3 -27 7 -28 9 -2 1 19 33 47 70 55 73 60 84 34 84
-20 -1 -169 -194 -184 -240 -8 -20 -6 -37 5 -64 l15 -36 -159 -211 c-88 -116
-160 -218 -160 -226 0 -35 41 0 115 100 75 101 82 107 110 102 17 -2 64 -10
106 -16 65 -11 88 -10 166 5 l90 17 162 -72 c132 -58 164 -70 171 -58 5 8 7
23 4 34 -2 11 -15 94 -28 183 l-23 164 24 58 c46 114 54 219 27 329 -30 119
-100 235 -182 296 -50 39 -72 44 -72 18z m-226 -594 c26 -20 36 -69 18 -95
-10 -15 -47 -34 -67 -34 -25 0 -65 46 -65 75 0 30 41 75 68 75 11 0 31 -9 46
-21z"/>
<path d="M2270 1734 c-17 -15 -38 -43 -47 -63 -20 -45 -24 -202 -5 -208 6 -3
12 -13 12 -23 0 -10 5 -20 12 -22 12 -4 -107 -131 -132 -141 -13 -4 -12 -6 1
-6 10 -1 15 -10 15 -23 -1 -31 34 -35 65 -8 l24 22 -25 -16 c-57 -37 -84 -4
-27 35 17 12 52 41 77 64 32 30 57 44 85 48 52 8 94 51 111 113 l13 49 0 -82
1 -83 40 0 40 0 0 55 c0 62 1 62 76 73 48 7 49 8 49 42 l0 35 -57 0 -58 -1 0
33 0 32 68 6 c63 7 69 9 81 37 20 45 6 50 -108 46 -118 -4 -120 -5 -122 -93
-1 -60 -1 -60 -10 -20 -15 67 -31 95 -60 110 -42 22 -83 18 -119 -11z m89 -69
c2 -11 8 -23 15 -27 6 -5 7 -8 1 -8 -15 0 -17 -92 -2 -103 8 -6 7 -7 -5 -3
-11 3 -18 0 -18 -7 0 -7 -6 -22 -14 -32 -12 -17 -16 -18 -31 -5 -14 12 -17 26
-12 85 6 86 21 128 44 123 10 -2 19 -12 22 -23z m69 -110 c-3 -3 -9 2 -12 12
-6 14 -5 15 5 6 7 -7 10 -15 7 -18z m2 -36 c0 -6 -4 -7 -10 -4 -5 3 -10 11
-10 16 0 6 5 7 10 4 6 -3 10 -11 10 -16z m-38 -21 c-8 -8 -9 -4 -5 13 4 13 8
18 11 10 2 -7 -1 -18 -6 -23z m-171 -159 c-71 -64 -82 -53 -13 13 29 28 56 47
60 43 4 -4 -17 -29 -47 -56z"/>
<path d="M2718 1753 c18 -4 20 -7 10 -18 -38 -42 -39 -45 -34 -123 4 -50 3
-68 -3 -52 -6 18 -9 -3 -10 -72 l-1 -98 49 0 c56 0 64 -9 50 -66 -4 -22 -8
-43 -8 -49 0 -20 27 53 34 93 3 22 13 43 22 46 9 4 14 9 11 12 -3 2 -17 0 -31
-7 -18 -8 -30 -8 -43 0 -11 6 -14 11 -7 11 7 0 12 21 12 58 1 31 5 103 9 160
4 57 5 105 3 108 -2 2 -23 3 -45 3 -23 -1 -31 -4 -18 -6z m-11 -110 c-3 -10
-5 -2 -5 17 0 19 2 27 5 18 2 -10 2 -26 0 -35z"/>
<path d="M1720 1640 c-11 -8 -7 -9 15 -5 28 5 29 5 6 -5 -14 -6 -31 -8 -38 -6
-15 6 -96 -69 -107 -99 -4 -12 4 -7 22 14 28 33 30 34 60 22 17 -7 37 -11 44
-8 7 3 -2 8 -21 13 -32 7 -33 8 -15 21 27 20 115 44 129 35 6 -4 2 1 -8 11
-21 19 -64 22 -87 7z"/>
<path d="M1807 1564 c-28 -37 -95 -67 -153 -68 -29 -1 -50 -4 -47 -8 7 -12 66
-9 104 4 45 15 106 56 113 75 10 25 3 23 -17 -3z"/>
<path d="M3241 1574 c0 -11 3 -14 6 -6 3 7 2 16 -1 19 -3 4 -6 -2 -5 -13z"/>
<path d="M3295 1571 c-3 -12 -4 -29 0 -40 3 -10 1 -29 -4 -42 -9 -24 -10 -23
-17 9 -6 30 -24 55 -24 34 0 -17 22 -72 29 -72 16 0 41 43 41 72 0 29 1 30 13
13 14 -18 37 -14 37 8 0 7 -4 6 -10 -3 -5 -8 -10 -12 -12 -10 -2 3 -8 14 -14
24 -15 28 -31 31 -39 7z"/>
<path d="M3190 1514 c-6 -14 -10 -38 -10 -54 0 -15 -9 -38 -20 -51 l-20 -24
10 28 c11 32 6 47 -16 47 -9 0 -14 -11 -14 -35 0 -39 -5 -42 -32 -19 -16 16
-18 15 -27 -7 l-10 -24 0 23 c-1 21 -2 22 -17 8 -8 -9 -18 -16 -22 -17 -4 0
-15 -2 -26 -4 -16 -3 -17 1 -12 43 8 59 -9 36 -19 -26 -5 -32 -13 -45 -30 -52
-13 -5 -25 -19 -27 -32 -2 -14 -9 -22 -18 -20 -10 2 -8 -4 6 -19 22 -21 44
-19 44 4 0 7 -4 6 -10 -3 -8 -12 -10 -10 -10 10 0 14 5 32 10 40 8 12 10 10
11 -10 l1 -25 8 25 c6 20 9 22 14 9 4 -9 17 -16 29 -15 18 1 22 7 22 31 0 28
10 44 28 45 4 0 7 -13 7 -29 0 -38 20 -52 21 -14 0 15 4 36 8 46 6 18 7 17 24
-1 24 -26 64 -17 83 19 16 32 40 38 47 12 4 -17 5 -17 6 0 0 9 6 17 11 17 15
0 12 -16 -6 -34 -8 -9 -11 -16 -6 -16 5 0 15 7 22 15 10 12 10 21 -2 46 -12
23 -17 27 -21 15 -4 -9 -11 -16 -17 -16 -13 0 -13 46 0 71 8 13 7 19 0 19 -6
0 -15 -12 -20 -26z m-40 -71 c0 -5 -5 -15 -10 -23 -8 -12 -10 -11 -10 8 0 12
5 22 10 22 6 0 10 -3 10 -7z m-150 -92 c0 -11 -4 -23 -10 -26 -6 -4 -10 5 -10
19 0 14 5 26 10 26 6 0 10 -9 10 -19z"/>
<path d="M1757 1495 c-20 -14 -37 -28 -37 -30 0 -12 22 -3 42 17 20 20 22 20
35 3 12 -17 13 -17 13 -2 0 9 -5 17 -11 17 -5 0 -7 5 -4 10 9 15 3 13 -38 -15z"/>
<path d="M1865 1490 c-3 -5 -2 -10 4 -10 5 0 13 5 16 10 3 6 2 10 -4 10 -5 0
-13 -4 -16 -10z"/>
<path d="M1802 1447 c-23 -25 -20 -37 9 -37 9 0 19 -6 22 -12 3 -10 13 -9 41
5 46 22 49 21 36 -3 -6 -12 -21 -20 -38 -21 -24 0 -24 -1 -7 -8 18 -7 14 -12
-29 -40 -28 -17 -54 -31 -60 -31 -5 0 -7 -3 -4 -6 9 -9 80 31 107 60 30 32 52
34 48 4 -2 -19 3 -23 21 -21 13 2 21 -1 17 -7 -9 -15 1 -12 37 10 31 18 33 19
40 2 5 -14 7 -13 7 6 1 20 -2 22 -21 16 -21 -6 -22 -5 -8 11 13 17 13 18 0 10
-8 -4 -22 -14 -30 -20 -8 -7 -26 -16 -40 -20 -25 -7 -25 -7 4 24 17 17 25 31
18 31 -6 0 -14 -5 -17 -11 -12 -19 -30 -3 -30 27 0 23 -5 30 -23 32 -13 2 -34
-4 -48 -13 -14 -9 -35 -15 -47 -13 -20 3 -19 5 13 25 19 13 28 23 19 23 -8 0
-25 -10 -37 -23z m94 -22 c-11 -8 -27 -15 -35 -15 -10 1 -7 6 9 15 33 19 50
18 26 0z"/>
<path d="M1995 1420 c-3 -6 1 -7 9 -4 18 7 21 14 7 14 -6 0 -13 -4 -16 -10z"/>
<path d="M2392 1373 c1 -5 -6 -23 -15 -40 -23 -44 -8 -42 21 2 18 28 29 35 55
35 18 0 44 -7 57 -16 l25 -16 -24 21 c-17 15 -37 21 -72 21 -27 0 -48 -3 -47
-7z"/>
<path d="M2631 1333 c-13 -27 -25 -64 -27 -83 -2 -29 1 -25 21 27 13 34 29 71
35 82 6 12 7 21 2 21 -4 0 -19 -21 -31 -47z"/>
<path d="M2323 1363 c-13 -2 -23 -8 -23 -13 0 -8 13 -5 70 13 18 7 -15 6 -47
0z"/>
<path d="M1729 1329 l-24 -20 30 17 c39 24 40 24 28 24 -6 0 -21 -9 -34 -21z"/>
<path d="M2080 1335 c-7 -8 -19 -15 -26 -15 -8 0 -14 -7 -14 -15 0 -19 11 -19
36 0 26 19 35 19 27 -2 -5 -15 -3 -14 10 2 9 11 17 26 17 33 0 17 -35 15 -50
-3z"/>
<path d="M2815 1308 c-9 -58 -1 -83 14 -45 7 18 8 40 2 60 l-8 32 -8 -47z"/>
<path d="M2840 1322 c0 -5 7 -9 15 -9 8 0 15 4 15 9 0 4 -7 8 -15 8 -8 0 -15
-4 -15 -8z"/>
<path d="M1723 1283 c9 -2 23 -2 30 0 6 3 -1 5 -18 5 -16 0 -22 -2 -12 -5z"/>
<path d="M2424 1278 c-3 -5 -26 -8 -52 -8 -26 0 -54 -5 -62 -11 -11 -7 1 -8
42 -3 50 5 56 4 55 -12 -2 -24 28 -30 37 -8 5 14 4 15 -9 4 -20 -17 -29 -7
-16 18 7 13 18 18 34 15 19 -4 23 -10 19 -30 -4 -20 -1 -24 14 -21 11 2 23 13
29 26 5 12 15 22 22 22 16 0 16 -5 2 -31 -13 -25 -5 -51 14 -43 21 8 50 74 34
79 -21 9 -159 11 -163 3z m86 -22 c0 -16 -18 -31 -27 -22 -8 8 5 36 17 36 5 0
10 -6 10 -14z m55 -32 c-23 -36 -30 -23 -9 18 10 18 19 27 22 20 2 -7 -4 -24
-13 -38z"/>
<path d="M2960 1261 c0 -11 4 -22 9 -25 4 -3 6 6 3 19 -5 30 -12 33 -12 6z"/>
<path d="M2761 1232 c0 -7 -13 -24 -28 -38 -35 -32 -24 -40 20 -14 20 12 41
19 47 15 5 -3 10 -1 10 4 0 6 -9 11 -19 11 -11 0 -22 8 -24 18 -3 9 -5 11 -6
4z"/>
<path d="M2592 1180 c0 -19 2 -27 5 -17 2 9 2 25 0 35 -3 9 -5 1 -5 -18z"/>
<path d="M2311 1184 c0 -11 3 -14 6 -6 3 7 2 16 -1 19 -3 4 -6 -2 -5 -13z"/>
</g>
</svg>
